<svg width="64" height="64" viewBox="0 0 64 64" fill="none" xmlns="http://www.w3.org/2000/svg">
  <circle cx="32" cy="32" r="32" fill="#2775CA"/>
  <path d="M38.4 32C38.4 35.52 35.52 38.4 32 38.4C28.48 38.4 25.6 35.52 25.6 32C25.6 28.48 28.48 25.6 32 25.6C35.52 25.6 38.4 28.48 38.4 32Z" fill="white"/>
  <path d="M32 16C23.16 16 16 23.16 16 32C16 40.84 23.16 48 32 48C40.84 48 48 40.84 48 32C48 23.16 40.84 16 32 16ZM32 44.8C24.92 44.8 19.2 39.08 19.2 32C19.2 24.92 24.92 19.2 32 19.2C39.08 19.2 44.8 24.92 44.8 32C44.8 39.08 39.08 44.8 32 44.8Z" fill="white"/>
</svg>
