<svg width="64" height="64" viewBox="0 0 64 64" fill="none" xmlns="http://www.w3.org/2000/svg">
  <circle cx="32" cy="32" r="32" fill="#F09242"/>
  <path d="M40.8 28.8C41.2 26 39.2 24.4 36.4 23.6L37.2 20.4L34.8 19.8L34 22.8C33.4 22.6 32.8 22.5 32.2 22.3L33 19.2L30.6 18.6L29.8 21.8C29.3 21.7 28.8 21.6 28.3 21.4L28.3 21.4L25 20.6L24.4 23.2C24.4 23.2 26.2 23.6 26.2 23.6C27.1 23.8 27.3 24.4 27.2 24.9L26.3 28.5L26.3 31.2L27.1 31.4C27 31.4 26.8 31.4 26.7 31.3L25.4 36.8C25.3 37.1 25.1 37.5 24.5 37.3C24.5 37.4 22.7 36.9 22.7 36.9L21.6 39.7L24.7 40.4C25.3 40.6 25.8 40.7 26.4 40.9L25.6 44.2L28 44.8L28.8 41.6C29.4 41.8 30 41.9 30.6 42.1L29.8 45.2L32.2 45.8L33 42.5C36.8 43.2 39.6 42.9 40.8 39.5C41.8 36.8 40.8 35.2 38.9 34.2C40.3 33.9 41.3 33 41.6 31.2C41.9 29.5 40.8 28.8 40.8 28.8ZM36.4 37.8C35.7 40.5 31 39.4 29.4 39L30.5 34.7C32.1 35.1 37.1 35 36.4 37.8ZM37.1 31.1C36.5 33.6 32.7 32.7 31.4 32.4L32.4 28.4C33.7 28.7 37.7 28.5 37.1 31.1Z" fill="white"/>
</svg>
